<?xml version="1.0" encoding="UTF-8" standalone="no"?>
<!DOCTYPE svg PUBLIC "-//W3C//DTD SVG 1.1//EN" "http://www.w3.org/Graphics/SVG/1.1/DTD/svg11.dtd">
<svg width="100%" height="100%" viewBox="0 0 500 95" version="1.1" xmlns="http://www.w3.org/2000/svg" xmlns:xlink="http://www.w3.org/1999/xlink" xml:space="preserve" xmlns:serif="http://www.serif.com/" style="fill-rule:evenodd;clip-rule:evenodd;stroke-linejoin:round;stroke-miterlimit:2;">
    <g transform="matrix(1,0,0,1,-1667,0)">
        <g id="Artboard1" transform="matrix(0.607019,0,0,0.36516,654.727,0)">
            <rect x="1667.61" y="0" width="823.698" height="257.437" style="fill:none;"/>
            <clipPath id="_clip1">
                <rect x="1667.61" y="0" width="823.698" height="257.437"/>
            </clipPath>
            <g clip-path="url(#_clip1)">
                <g transform="matrix(2.38139,0,0,3.95867,176.387,-1019.11)">
                    <text x="624.158px" y="321.455px" style="font-family:'CenturyGothic', 'Century Gothic', sans-serif;font-size:85.358px;">At  mAni</text>
                    <g id="logoO" transform="matrix(0.420928,-2.498e-16,2.498e-16,0.420928,274.663,168.595)">
                        <g transform="matrix(1,0,0,1,-0.864243,0)">
                            <rect x="1081.69" y="343.001" width="49.438" height="12.399"/>
                        </g>
                        <g transform="matrix(0.5,-0.866025,0.866025,0.5,288.18,1110.7)">
                            <rect x="1081.69" y="343.001" width="49.438" height="12.399"/>
                        </g>
                        <g transform="matrix(-0.5,-0.866025,0.866025,-0.5,1394.59,1415.73)">
                            <rect x="1081.69" y="343.001" width="49.438" height="12.399"/>
                        </g>
                        <g transform="matrix(-1,2.27596e-15,-2.27596e-15,-1,2211.96,610.058)">
                            <rect x="1081.69" y="343.001" width="49.438" height="12.399"/>
                        </g>
                        <g transform="matrix(-0.5,0.866025,-0.866025,-0.5,1922.92,-500.639)">
                            <rect x="1081.69" y="343.001" width="49.438" height="12.399"/>
                        </g>
                        <g transform="matrix(0.5,0.866025,-0.866025,0.5,816.505,-805.668)">
                            <rect x="1081.69" y="343.001" width="49.438" height="12.399"/>
                        </g>
                        <g transform="matrix(1,-4.60743e-15,4.60743e-15,1,-0.864243,5.22959e-12)">
                            <rect x="1081.69" y="343.001" width="49.438" height="12.399"/>
                        </g>
                        <g transform="matrix(1,0,0,1,-29.4724,18.6542)">
                            <circle cx="1085.58" cy="287.732" r="16.356" style="fill:rgb(0,2,255);"/>
                        </g>
                        <g transform="matrix(0.5,0.866025,-0.866025,0.5,787.221,-820.438)">
                            <circle cx="1085.58" cy="287.732" r="16.356" style="fill:rgb(0,2,255);"/>
                        </g>
                        <g transform="matrix(-0.5,0.866025,-0.866025,-0.5,1922.24,-532.706)">
                            <circle cx="1085.58" cy="287.732" r="16.356" style="fill:rgb(0,2,255);"/>
                        </g>
                        <g transform="matrix(-1,3.88578e-16,-3.88578e-16,-1,2240.57,594.118)">
                            <circle cx="1085.58" cy="287.732" r="16.356" style="fill:rgb(0,2,255);"/>
                        </g>
                        <g transform="matrix(-0.5,-0.866025,0.866025,-0.5,1423.88,1433.21)">
                            <circle cx="1085.58" cy="287.732" r="16.356" style="fill:rgb(0,2,255);"/>
                        </g>
                        <g transform="matrix(0.5,-0.866025,0.866025,0.5,288.856,1145.48)">
                            <circle cx="1085.58" cy="287.732" r="16.356" style="fill:rgb(0,2,255);"/>
                        </g>
                    </g>
                </g>
            </g>
        </g>
    </g>
</svg>
