<?xml version="1.0" encoding="UTF-8" standalone="no"?>
<!DOCTYPE svg PUBLIC "-//W3C//DTD SVG 1.1//EN" "http://www.w3.org/Graphics/SVG/1.1/DTD/svg11.dtd">
<svg width="100%" height="100%" viewBox="0 0 60 60" version="1.1" xmlns="http://www.w3.org/2000/svg" xmlns:xlink="http://www.w3.org/1999/xlink" xml:space="preserve" xmlns:serif="http://www.serif.com/" style="fill-rule:evenodd;clip-rule:evenodd;stroke-linejoin:round;stroke-miterlimit:2;">
    <g transform="matrix(1,0,0,1,-3.55271e-15,-240)">
        <g id="Artboard1" transform="matrix(1,0,0,1,3.55271e-15,240)">
            <rect x="0" y="0" width="60" height="60" style="fill:none;"/>
            <g transform="matrix(0.724575,0,0,0.724575,8.26276,8.26276)">
                <path d="M30,0C46.557,0 60,13.443 60,30C60,46.557 46.557,60 30,60C13.443,60 0,46.557 0,30C0,13.443 13.443,0 30,0ZM25.689,25.689L25.689,14.104C25.689,11.725 27.621,9.793 30,9.793C32.379,9.793 34.311,11.725 34.311,14.104L34.311,25.689L45.896,25.689C48.275,25.689 50.207,27.621 50.207,30C50.207,32.379 48.275,34.311 45.896,34.311L34.311,34.311L34.311,45.896C34.311,48.275 32.379,50.207 30,50.207C27.621,50.207 25.689,48.275 25.689,45.896L25.689,34.311L14.104,34.311C11.725,34.311 9.793,32.379 9.793,30C9.793,27.621 11.725,25.689 14.104,25.689L25.689,25.689Z" style="fill:rgb(71,72,80);"/>
            </g>
        </g>
    </g>
</svg>
