<?xml version="1.0" standalone="no"?>
<!DOCTYPE svg PUBLIC "-//W3C//DTD SVG 20010904//EN"
 "http://www.w3.org/TR/2001/REC-SVG-20010904/DTD/svg10.dtd">
<svg version="1.0" xmlns="http://www.w3.org/2000/svg"
 width="700.000000pt" height="700.000000pt" viewBox="0 0 700.000000 700.000000"
 preserveAspectRatio="xMidYMid meet">
<metadata>
Created by potrace 1.11, written by Peter Selinger 2001-2013
</metadata>
<g transform="translate(0.000000,700.000000) scale(0.100000,-0.100000)"
fill="#000000" stroke="none">
<path d="M2308 6185 c-2 -2 -25 -6 -53 -9 -167 -22 -354 -135 -470 -286 -25
-32 -45 -62 -45 -65 0 -4 -8 -19 -19 -33 -25 -36 -69 -167 -78 -233 -20 -146
3 -307 62 -432 l26 -54 -72 -124 c-39 -68 -81 -142 -94 -164 -132 -230 -308
-531 -313 -536 -4 -4 -41 -10 -81 -14 -41 -3 -79 -9 -83 -11 -5 -3 -18 -7 -31
-9 -41 -8 -150 -56 -206 -92 -73 -46 -187 -164 -230 -236 -77 -130 -112 -269
-106 -417 5 -126 23 -197 75 -300 128 -253 370 -405 656 -413 l77 -2 224 -388
224 -388 -21 -29 c-96 -134 -137 -358 -100 -541 57 -281 255 -491 545 -576 91
-26 276 -24 378 5 207 59 390 210 471 391 18 39 21 41 65 42 61 1 803 1 816 0
6 -1 25 -30 43 -64 92 -179 270 -319 474 -374 89 -24 281 -23 368 2 228 65
411 224 497 435 47 114 57 169 56 295 -1 134 -48 294 -113 385 l-21 30 37 62
c20 35 46 79 57 98 10 19 62 109 115 200 52 91 105 183 117 205 13 22 45 78
72 125 l49 85 60 1 c89 2 152 11 229 35 69 20 197 84 203 101 2 4 8 8 14 8 15
0 116 99 158 156 61 82 116 203 135 299 4 17 8 73 10 125 13 387 -280 720
-665 756 -71 6 -73 8 -121 93 -15 25 -117 203 -228 394 l-201 349 30 69 c51
119 64 189 63 319 -3 390 -331 718 -721 723 -129 1 -206 -13 -311 -58 -111
-46 -218 -129 -296 -227 l-37 -48 -498 0 -498 0 -38 48 c-142 178 -339 278
-563 286 -50 2 -91 2 -93 1z m1607 -965 c88 -260 293 -446 556 -506 54 -12
227 -13 286 0 l61 12 73 -125 c40 -69 130 -226 201 -348 l128 -223 -56 -72
c-61 -79 -83 -118 -114 -201 -48 -129 -58 -296 -26 -432 19 -81 81 -213 124
-268 l31 -38 -126 -217 c-69 -119 -163 -283 -209 -363 l-84 -146 -123 0 c-96
1 -138 -4 -199 -21 -83 -23 -191 -69 -196 -83 -2 -5 -8 -9 -14 -9 -5 0 -36
-21 -68 -46 -69 -54 -160 -165 -200 -243 l-28 -56 -430 0 c-237 1 -433 3 -435
5 -2 3 -18 32 -37 65 -63 114 -143 201 -248 270 -137 88 -248 119 -424 118
l-118 -1 -81 142 c-45 77 -91 157 -103 178 -12 20 -36 62 -55 95 -19 32 -45
78 -59 103 -14 25 -47 81 -73 125 l-47 80 40 58 c34 50 85 147 95 182 24 81
41 198 38 269 -7 174 -64 320 -178 458 l-39 47 20 33 c11 18 29 49 40 68 10
19 43 76 71 125 29 50 59 101 66 115 219 380 205 360 233 349 45 -17 230 -20
309 -4 147 28 268 93 378 200 58 57 149 180 150 204 1 3 6 15 12 26 5 11 18
45 28 75 10 30 19 57 21 60 1 3 179 6 395 5 l392 0 22 -65z"/>
</g>
</svg>
