<?xml version="1.0" encoding="UTF-8" standalone="no"?>
<!DOCTYPE svg PUBLIC "-//W3C//DTD SVG 1.1//EN" "http://www.w3.org/Graphics/SVG/1.1/DTD/svg11.dtd">
<svg width="100%" height="100%" viewBox="0 0 2000 2000" version="1.1" xmlns="http://www.w3.org/2000/svg" xmlns:xlink="http://www.w3.org/1999/xlink" xml:space="preserve" xmlns:serif="http://www.serif.com/" style="fill-rule:evenodd;clip-rule:evenodd;stroke-linejoin:round;stroke-miterlimit:2;">
    <g transform="matrix(1,0,0,1,-2089.96,-2093.96)">
        <g id="groupExample" transform="matrix(1,0,0,1,2089.96,2093.96)">
            <rect x="0" y="0" width="2000" height="2000" style="fill:none;"/>
            <g transform="matrix(1.36752,0,0,1.36752,-371.779,-461.378)">
                <g transform="matrix(1,0,0,1,-12.8173,12.5378)">
                    <g transform="matrix(0.673722,-0.388973,0.388973,0.673722,-597.633,-308.402)">
                        <path d="M1484.63,2866.94C1484.63,2834.32 1458.14,2807.83 1425.51,2807.83L1059.12,2807.83C1026.49,2807.83 1000,2834.32 1000,2866.94C1000,2899.57 1026.49,2926.06 1059.12,2926.06L1425.51,2926.06C1458.14,2926.06 1484.63,2899.57 1484.63,2866.94Z" style="fill:rgb(255,45,0);"/>
                    </g>
                    <g transform="matrix(0.673722,0.388973,-0.388973,0.673722,1632.7,-1417.37)">
                        <path d="M1484.63,2866.94C1484.63,2834.32 1458.14,2807.83 1425.51,2807.83L1059.12,2807.83C1026.49,2807.83 1000,2834.32 1000,2866.94C1000,2899.57 1026.49,2926.06 1059.12,2926.06L1425.51,2926.06C1458.14,2926.06 1484.63,2899.57 1484.63,2866.94Z" style="fill:rgb(255,45,0);"/>
                    </g>
                </g>
                <g transform="matrix(-1,1.22465e-16,-1.22465e-16,-1,2019.05,2149.81)">
                    <g transform="matrix(0.673722,-0.388973,0.388973,0.673722,-597.633,-308.402)">
                        <path d="M1484.63,2866.94C1484.63,2834.32 1458.14,2807.83 1425.51,2807.83L1059.12,2807.83C1026.49,2807.83 1000,2834.32 1000,2866.94C1000,2899.57 1026.49,2926.06 1059.12,2926.06L1425.51,2926.06C1458.14,2926.06 1484.63,2899.57 1484.63,2866.94Z" style="fill:rgb(255,45,0);"/>
                    </g>
                    <g transform="matrix(0.673722,0.388973,-0.388973,0.673722,1632.7,-1417.37)">
                        <path d="M1484.63,2866.94C1484.63,2834.32 1458.14,2807.83 1425.51,2807.83L1059.12,2807.83C1026.49,2807.83 1000,2834.32 1000,2866.94C1000,2899.57 1026.49,2926.06 1059.12,2926.06L1425.51,2926.06C1458.14,2926.06 1484.63,2899.57 1484.63,2866.94Z" style="fill:rgb(255,45,0);"/>
                    </g>
                </g>
                <g transform="matrix(0.698095,-1.20914,0.673722,0.388973,-1795.66,1455.6)">
                    <path d="M1484.63,2866.94C1484.63,2834.32 1469.87,2807.83 1451.69,2807.83L1032.94,2807.83C1014.76,2807.83 1000,2834.32 1000,2866.94C1000,2899.57 1014.76,2926.06 1032.94,2926.06L1451.69,2926.06C1469.87,2926.06 1484.63,2899.57 1484.63,2866.94Z" style="fill:rgb(255,45,0);"/>
                </g>
            </g>
        </g>
    </g>
</svg>
