<?xml version="1.0" encoding="UTF-8" standalone="no"?>
<!DOCTYPE svg PUBLIC "-//W3C//DTD SVG 1.1//EN" "http://www.w3.org/Graphics/SVG/1.1/DTD/svg11.dtd">
<svg width="100%" height="100%" viewBox="0 0 2000 2000" version="1.1" xmlns="http://www.w3.org/2000/svg" xmlns:xlink="http://www.w3.org/1999/xlink" xml:space="preserve" xmlns:serif="http://www.serif.com/" style="fill-rule:evenodd;clip-rule:evenodd;stroke-linejoin:round;stroke-miterlimit:2;">
    <g transform="matrix(1,0,0,1,-6273.88,-2089.96)">
        <g id="groupExample" transform="matrix(1,0,0,1,6273.88,2089.96)">
            <rect x="0" y="0" width="2000" height="2000" style="fill:none;"/>
            <g transform="matrix(-1.18428,0,0,0.993752,9614.33,6.24829)">
                <path d="M7385.71,492.197C7385.71,456.85 7373.93,422.952 7352.96,397.958C7331.98,372.964 7303.54,358.923 7273.88,358.923C7273.88,358.923 7273.88,358.923 7273.88,358.923C7244.22,358.923 7215.77,372.964 7194.8,397.958C7173.83,422.952 7162.05,456.85 7162.05,492.197L7162.05,1507.8C7162.05,1543.15 7173.83,1577.05 7194.8,1602.04C7215.77,1627.04 7244.22,1641.08 7273.88,1641.08L7273.88,1641.08C7303.54,1641.08 7331.98,1627.04 7352.96,1602.04C7373.93,1577.05 7385.71,1543.15 7385.71,1507.8L7385.71,492.197Z" style="fill:rgb(63,63,63);"/>
            </g>
            <g transform="matrix(-7.25164e-17,-1.18428,-0.993752,6.08497e-17,1993.75,9614.33)">
                <path d="M7385.71,492.197C7385.71,456.85 7373.93,422.952 7352.96,397.958C7331.98,372.964 7303.54,358.923 7273.88,358.923C7273.88,358.923 7273.88,358.923 7273.88,358.923C7244.22,358.923 7215.77,372.964 7194.8,397.958C7173.83,422.952 7162.05,456.85 7162.05,492.197L7162.05,1507.8C7162.05,1543.15 7173.83,1577.05 7194.8,1602.04C7215.77,1627.04 7244.22,1641.08 7273.88,1641.08L7273.88,1641.08C7303.54,1641.08 7331.98,1627.04 7352.96,1602.04C7373.93,1577.05 7385.71,1543.15 7385.71,1507.8L7385.71,492.197Z" style="fill:rgb(63,63,63);"/>
            </g>
        </g>
    </g>
</svg>
