<?xml version="1.0" encoding="UTF-8" standalone="no"?>
<!DOCTYPE svg PUBLIC "-//W3C//DTD SVG 1.1//EN" "http://www.w3.org/Graphics/SVG/1.1/DTD/svg11.dtd">
<svg width="100%" height="100%" viewBox="0 0 2000 2000" version="1.1" xmlns="http://www.w3.org/2000/svg" xmlns:xlink="http://www.w3.org/1999/xlink" xml:space="preserve" xmlns:serif="http://www.serif.com/" style="fill-rule:evenodd;clip-rule:evenodd;stroke-linejoin:round;stroke-miterlimit:2;">
    <g transform="matrix(1,0,0,1,-4183.92,-4183.92)">
        <g id="groupExample" transform="matrix(1,0,0,1,4183.92,4183.92)">
            <rect x="0" y="0" width="2000" height="2000" style="fill:none;"/>
            <g transform="matrix(40.5324,0,0,41.5746,-3111.18,-62851.7)">
                <g transform="matrix(0.0982987,0,0,0.0958345,-8.55236,958.955)">
                    <circle cx="1118.85" cy="6021.11" r="38.665" style="fill:rgb(0,131,255);"/>
                </g>
                <g transform="matrix(0.0982987,0,0,0.0958345,-8.55236,968.338)">
                    <circle cx="1118.85" cy="6021.11" r="38.665" style="fill:rgb(0,131,255);"/>
                </g>
                <g transform="matrix(0.0982987,0,0,0.0958345,-8.55236,949.283)">
                    <circle cx="1118.85" cy="6021.11" r="38.665" style="fill:rgb(0,131,255);"/>
                </g>
                <g transform="matrix(0.0982987,0,0,0.0958345,-18.1373,958.955)">
                    <circle cx="1118.85" cy="6021.11" r="38.665" style="fill:rgb(0,131,255);"/>
                </g>
                <g transform="matrix(0.0982987,0,0,0.0958345,-18.1373,968.338)">
                    <circle cx="1118.85" cy="6021.11" r="38.665" style="fill:rgb(0,131,255);"/>
                </g>
                <g transform="matrix(0.0982987,0,0,0.0958345,-18.1373,949.283)">
                    <circle cx="1118.85" cy="6021.11" r="38.665" style="fill:rgb(0,131,255);"/>
                </g>
                <g transform="matrix(0.0982987,0,0,0.0958345,1.03255,958.955)">
                    <circle cx="1118.85" cy="6021.11" r="38.665" style="fill:rgb(0,131,255);"/>
                </g>
                <g transform="matrix(0.0982987,0,0,0.0958345,1.03255,968.338)">
                    <circle cx="1118.85" cy="6021.11" r="38.665" style="fill:rgb(0,131,255);"/>
                </g>
                <g transform="matrix(0.0982987,0,0,0.0958345,1.03255,949.283)">
                    <circle cx="1118.85" cy="6021.11" r="38.665" style="fill:rgb(0,131,255);"/>
                </g>
            </g>
            <g transform="matrix(46.9834,0,0,48.1915,-3765.5,-73014.1)">
                <g transform="matrix(0.0982987,0,0,0.0958345,-8.55236,958.955)">
                    <circle cx="1118.85" cy="6021.11" r="38.665" style="fill:rgb(0,78,255);"/>
                </g>
                <g transform="matrix(0.0982987,0,0,0.0958345,-8.55236,968.338)">
                    <circle cx="1118.85" cy="6021.11" r="38.665" style="fill:rgb(0,78,255);"/>
                </g>
                <g transform="matrix(0.0982987,0,0,0.0958345,-8.55236,949.283)">
                    <circle cx="1118.85" cy="6021.11" r="38.665" style="fill:rgb(0,78,255);"/>
                </g>
                <g transform="matrix(0.0982987,0,0,0.0958345,-18.1373,958.955)">
                    <circle cx="1118.85" cy="6021.11" r="38.665" style="fill:rgb(0,78,255);"/>
                </g>
                <g transform="matrix(0.0982987,0,0,0.0958345,-18.1373,968.338)">
                    <circle cx="1118.85" cy="6021.11" r="38.665" style="fill:rgb(0,78,255);"/>
                </g>
                <g transform="matrix(0.0982987,0,0,0.0958345,-18.1373,949.283)">
                    <circle cx="1118.85" cy="6021.11" r="38.665" style="fill:rgb(0,78,255);"/>
                </g>
                <g transform="matrix(0.0982987,0,0,0.0958345,1.03255,958.955)">
                    <circle cx="1118.85" cy="6021.11" r="38.665" style="fill:rgb(0,78,255);"/>
                </g>
                <g transform="matrix(0.0982987,0,0,0.0958345,1.03255,968.338)">
                    <circle cx="1118.85" cy="6021.11" r="38.665" style="fill:rgb(0,78,255);"/>
                </g>
                <g transform="matrix(0.0982987,0,0,0.0958345,1.03255,949.283)">
                    <circle cx="1118.85" cy="6021.11" r="38.665" style="fill:rgb(0,78,255);"/>
                </g>
            </g>
            <g transform="matrix(54.4611,0,0,55.8614,-4523.96,-84794)">
                <g transform="matrix(0.0982987,0,0,0.0958345,-8.55236,958.955)">
                    <circle cx="1118.85" cy="6021.11" r="38.665" style="fill:rgb(0,2,255);"/>
                </g>
                <g transform="matrix(0.0982987,0,0,0.0958345,-8.55236,968.338)">
                    <circle cx="1118.85" cy="6021.11" r="38.665" style="fill:rgb(0,2,255);"/>
                </g>
                <g transform="matrix(0.0982987,0,0,0.0958345,-8.55236,949.283)">
                    <circle cx="1118.85" cy="6021.11" r="38.665" style="fill:rgb(0,2,255);"/>
                </g>
                <g transform="matrix(0.0982987,0,0,0.0958345,-18.1373,958.955)">
                    <circle cx="1118.85" cy="6021.11" r="38.665" style="fill:rgb(0,2,255);"/>
                </g>
                <g transform="matrix(0.0982987,0,0,0.0958345,-18.1373,968.338)">
                    <circle cx="1118.85" cy="6021.11" r="38.665" style="fill:rgb(0,2,255);"/>
                </g>
                <g transform="matrix(0.0982987,0,0,0.0958345,-18.1373,949.283)">
                    <circle cx="1118.85" cy="6021.11" r="38.665" style="fill:rgb(0,2,255);"/>
                </g>
                <g transform="matrix(0.0982987,0,0,0.0958345,1.03255,958.955)">
                    <circle cx="1118.85" cy="6021.11" r="38.665" style="fill:rgb(0,2,255);"/>
                </g>
                <g transform="matrix(0.0982987,0,0,0.0958345,1.03255,968.338)">
                    <circle cx="1118.85" cy="6021.11" r="38.665" style="fill:rgb(0,2,255);"/>
                </g>
                <g transform="matrix(0.0982987,0,0,0.0958345,1.03255,949.283)">
                    <circle cx="1118.85" cy="6021.11" r="38.665" style="fill:rgb(0,2,255);"/>
                </g>
            </g>
        </g>
    </g>
</svg>
