<?xml version="1.0" encoding="UTF-8" standalone="no"?>
<!DOCTYPE svg PUBLIC "-//W3C//DTD SVG 1.1//EN" "http://www.w3.org/Graphics/SVG/1.1/DTD/svg11.dtd">
<svg width="100%" height="100%" viewBox="0 0 200 200" version="1.1" xmlns="http://www.w3.org/2000/svg" xmlns:xlink="http://www.w3.org/1999/xlink" xml:space="preserve" xmlns:serif="http://www.serif.com/" style="fill-rule:evenodd;clip-rule:evenodd;stroke-linejoin:round;stroke-miterlimit:2;">
    <g transform="matrix(1,0,0,1,-200,0)">
        <g id="Pen_dark" transform="matrix(1,0,0,1,200,0)">
            <rect x="0" y="0" width="200" height="200" style="fill:none;"/>
            <g id="Pen" transform="matrix(0.708198,-0.708198,0.708198,0.708198,-37.1619,95.5223)">
                <path d="M148.217,85.318L37.862,85.318C37.383,85.318 36.91,85.435 36.486,85.657C33.518,87.21 21.051,93.735 13.997,97.426C13.039,97.927 12.439,98.919 12.439,100C12.439,101.081 13.039,102.073 13.997,102.574C21.051,106.265 33.518,112.79 36.486,114.343C36.91,114.565 37.383,114.682 37.862,114.682L148.217,114.682L148.217,85.318ZM163.197,88.289C163.197,86.649 161.866,85.318 160.226,85.318L151.315,85.318L151.315,114.682L160.226,114.682C161.866,114.682 163.197,113.351 163.197,111.711L163.197,88.289ZM21.139,96.904L21.139,103.128L37.119,111.697L37.119,88.303L21.139,96.904Z" style="fill:rgb(181,181,181);"/>
                <clipPath id="_clip1">
                    <path d="M148.217,85.318L37.862,85.318C37.383,85.318 36.91,85.435 36.486,85.657C33.518,87.21 21.051,93.735 13.997,97.426C13.039,97.927 12.439,98.919 12.439,100C12.439,101.081 13.039,102.073 13.997,102.574C21.051,106.265 33.518,112.79 36.486,114.343C36.91,114.565 37.383,114.682 37.862,114.682L148.217,114.682L148.217,85.318ZM163.197,88.289C163.197,86.649 161.866,85.318 160.226,85.318L151.315,85.318L151.315,114.682L160.226,114.682C161.866,114.682 163.197,113.351 163.197,111.711L163.197,88.289ZM21.139,96.904L21.139,103.128L37.119,111.697L37.119,88.303L21.139,96.904Z"/>
                </clipPath>
                <g clip-path="url(#_clip1)">
                    <g id="Lighting" transform="matrix(3.35488,0,0,0.200058,-87.411,70.6376)">
                        <rect x="37.119" y="88.303" width="33.115" height="23.393" style="fill-opacity:0.17;"/>
                    </g>
                    <g id="Lighting1" serif:id="Lighting" transform="matrix(3.35488,0,0,0.200058,-87.411,89.3509)">
                        <rect x="37.119" y="88.303" width="33.115" height="23.393" style="fill-opacity:0.17;"/>
                    </g>
                </g>
            </g>
        </g>
    </g>
</svg>
